<svg width="275" height="275" viewBox="0 0 275 275" fill="none" xmlns="http://www.w3.org/2000/svg">
<rect width="275" height="275" rx="11" fill="white"/>
<path d="M37.558 231.964L54.286 190.8H38.378V182.6H63.962V190.636L47.234 231.8H63.962V240H37.558V231.964ZM76.041 182.6H88.259L97.607 240H88.587L86.947 228.602V228.766H76.697L75.057 240H66.693L76.041 182.6ZM85.881 220.976L81.863 192.604H81.699L77.763 220.976H85.881ZM101.983 182.6H115.267C119.75 182.6 123.112 183.803 125.353 186.208C127.594 188.613 128.715 192.139 128.715 196.786V202.444C128.715 207.091 127.594 210.617 125.353 213.022C123.112 215.427 119.75 216.63 115.267 216.63H111.003V240H101.983V182.6ZM115.267 208.43C116.743 208.43 117.836 208.02 118.547 207.2C119.312 206.38 119.695 204.986 119.695 203.018V196.212C119.695 194.244 119.312 192.85 118.547 192.03C117.836 191.21 116.743 190.8 115.267 190.8H111.003V208.43H115.267ZM133.614 182.6H146.898C151.381 182.6 154.743 183.803 156.984 186.208C159.225 188.613 160.346 192.139 160.346 196.786V202.444C160.346 207.091 159.225 210.617 156.984 213.022C154.743 215.427 151.381 216.63 146.898 216.63H142.634V240H133.614V182.6ZM146.898 208.43C148.374 208.43 149.467 208.02 150.178 207.2C150.943 206.38 151.326 204.986 151.326 203.018V196.212C151.326 194.244 150.943 192.85 150.178 192.03C149.467 191.21 148.374 190.8 146.898 190.8H142.634V208.43H146.898Z" fill="black"/>
</svg>
